G04*
G04 #@! TF.GenerationSoftware,Altium Limited,Altium Designer,21.6.4 (81)*
G04*
G04 Layer_Color=32768*
%FSLAX25Y25*%
%MOIN*%
G70*
G04*
G04 #@! TF.SameCoordinates,001FDD04-7A3F-48FA-9A57-AA4991743B26*
G04*
G04*
G04 #@! TF.FilePolarity,Positive*
G04*
G01*
G75*
%ADD12C,0.00787*%
%ADD42C,0.00394*%
%ADD43C,0.00197*%
D12*
X231055Y91693D02*
X262945D01*
X231055Y53307D02*
Y91693D01*
Y53307D02*
X262945D01*
Y91693D01*
X156394Y14106D02*
Y65894D01*
X127606D02*
X156394D01*
X127606Y14106D02*
Y65894D01*
Y14106D02*
X156394D01*
X89055Y109693D02*
X120945D01*
X89055Y71307D02*
Y109693D01*
Y71307D02*
X120945D01*
Y109693D01*
D42*
X28000Y113032D02*
Y116969D01*
X26032Y115000D02*
X29969D01*
X183000Y79532D02*
Y83469D01*
X181032Y81500D02*
X184969D01*
X64032Y85000D02*
X67969D01*
X66000Y83032D02*
Y86969D01*
D43*
X88662Y91296D02*
X88438Y92337D01*
X87907Y93260D01*
X87120Y93977D01*
X86152Y94421D01*
X85094Y94547D01*
X85021Y75453D02*
X86095Y75560D01*
X87083Y75995D01*
X87889Y76714D01*
X88433Y77646D01*
X88662Y78701D01*
X43264D02*
X43493Y77646D01*
X44037Y76714D01*
X44843Y75995D01*
X45831Y75560D01*
X46905Y75453D01*
X46832Y94547D02*
X45774Y94421D01*
X44806Y93977D01*
X44019Y93260D01*
X43488Y92337D01*
X43264Y91296D01*
X18984Y93937D02*
X39457D01*
X18984Y136063D02*
X39457D01*
Y93937D02*
Y136063D01*
X18984Y93937D02*
Y136063D01*
X88663Y78701D02*
Y91296D01*
X43264Y78701D02*
Y91296D01*
X46906Y94547D02*
X85094D01*
X46906Y75453D02*
X85094D01*
M02*
