G04*
G04 #@! TF.GenerationSoftware,Altium Limited,Altium Designer,21.6.4 (81)*
G04*
G04 Layer_Color=16711935*
%FSLAX25Y25*%
%MOIN*%
G70*
G04*
G04 #@! TF.SameCoordinates,001FDD04-7A3F-48FA-9A57-AA4991743B26*
G04*
G04*
G04 #@! TF.FilePolarity,Negative*
G04*
G01*
G75*
%ADD15C,0.06706*%
%ADD16R,0.06706X0.06706*%
%ADD17C,0.07099*%
%ADD18R,0.07099X0.07099*%
%ADD19R,0.06706X0.06706*%
%ADD20C,0.06102*%
%ADD21R,0.06102X0.06102*%
%ADD22C,0.06312*%
%ADD23C,0.07800*%
%ADD24C,0.11237*%
%ADD25R,0.11237X0.11237*%
%ADD26R,0.05524X0.05524*%
%ADD27C,0.05524*%
%ADD28R,0.05524X0.05524*%
%ADD29C,0.12800*%
D15*
X273000Y89500D02*
D03*
Y79500D02*
D03*
Y69500D02*
D03*
Y59500D02*
D03*
Y49500D02*
D03*
Y39500D02*
D03*
Y29500D02*
D03*
X20500Y67500D02*
D03*
Y57500D02*
D03*
Y47500D02*
D03*
Y37500D02*
D03*
Y27500D02*
D03*
X198000Y16500D02*
D03*
Y26500D02*
D03*
Y36500D02*
D03*
Y46500D02*
D03*
Y56500D02*
D03*
Y66500D02*
D03*
Y76500D02*
D03*
Y86500D02*
D03*
Y96500D02*
D03*
Y106500D02*
D03*
Y116500D02*
D03*
Y126500D02*
D03*
Y136500D02*
D03*
Y146500D02*
D03*
X168000Y16500D02*
D03*
Y26500D02*
D03*
Y36500D02*
D03*
Y46500D02*
D03*
Y56500D02*
D03*
Y66500D02*
D03*
Y76500D02*
D03*
Y86500D02*
D03*
Y96500D02*
D03*
Y106500D02*
D03*
Y116500D02*
D03*
Y126500D02*
D03*
Y136500D02*
D03*
D16*
X273000Y19500D02*
D03*
X20500Y17500D02*
D03*
D17*
X28000Y105000D02*
D03*
Y115000D02*
D03*
D18*
Y125000D02*
D03*
D19*
X168000Y146500D02*
D03*
D20*
X235189Y56752D02*
D03*
Y88248D02*
D03*
X258811Y56752D02*
D03*
X93189Y74752D02*
D03*
Y106248D02*
D03*
X116811Y74752D02*
D03*
D21*
X258811Y88248D02*
D03*
X116811Y106248D02*
D03*
D22*
X216000Y87000D02*
D03*
Y57000D02*
D03*
X80500Y105000D02*
D03*
Y135000D02*
D03*
X152500Y150500D02*
D03*
Y180500D02*
D03*
X135000Y150000D02*
D03*
Y180000D02*
D03*
X118500Y149000D02*
D03*
Y119000D02*
D03*
X91000Y20500D02*
D03*
Y50500D02*
D03*
D23*
X57000Y158500D02*
D03*
Y168500D02*
D03*
X114500Y173500D02*
D03*
Y183500D02*
D03*
X146500Y120000D02*
D03*
X136500D02*
D03*
D24*
X142000Y58500D02*
D03*
Y40000D02*
D03*
D25*
Y21500D02*
D03*
D26*
X113000Y48000D02*
D03*
D27*
Y38000D02*
D03*
Y28000D02*
D03*
X74500Y21000D02*
D03*
Y51000D02*
D03*
X56394Y85000D02*
D03*
X56000Y51000D02*
D03*
Y21000D02*
D03*
D28*
X75606Y85000D02*
D03*
D29*
X308500Y9000D02*
D03*
Y199000D02*
D03*
X7500Y9000D02*
D03*
Y199000D02*
D03*
M02*
