M48
;Layer_Color=9474304
;FILE_FORMAT=2:4
INCH,TZ
;TYPE=PLATED
T1F00S00C0.0276
T2F00S00C0.0335
T3F00S00C0.0354
T4F00S00C0.0394
T5F00S00C0.0500
T6F00S00C0.0730
T7F00S00C0.1120
%
T01
X5600Y2100
Y5100
X7450
Y2100
X11300Y2800
Y3800
Y4800
X7561Y8500
X5639
T02
X9100Y2050
Y5050
X21600Y5700
Y8700
X15250Y15050
X13500Y15000
X11850Y14900
Y11900
X8050Y10500
Y13500
X13500Y18000
X15250Y18050
T03
X2050Y1750
Y2750
Y3750
Y4750
Y5750
X16800Y5650
Y4650
Y3650
Y2650
Y1650
X19800
Y2650
Y3650
Y4650
Y5650
X27300Y5950
Y4950
Y3950
Y2950
Y1950
Y6950
Y7950
Y8950
X19800Y8650
Y7650
Y6650
Y9650
Y10650
Y11650
Y12650
Y13650
Y14650
X16800
Y13650
Y12650
Y11650
Y10650
Y9650
Y8650
Y7650
Y6650
X2050Y6750
T04
X23519Y5675
X25881
Y8825
X23519
X11681Y7475
X9319
Y10625
X11681
X2800Y10500
Y11500
Y12500
T05
X13650Y12000
X14650
X11450Y17350
Y18350
X5700Y16850
Y15850
T06
X14200Y2150
Y4000
Y5850
T07
X750Y900
X30850
Y19900
X750
M30
