G04*
G04 #@! TF.GenerationSoftware,Altium Limited,Altium Designer,21.6.4 (81)*
G04*
G04 Layer_Color=16711935*
%FSLAX25Y25*%
%MOIN*%
G70*
G04*
G04 #@! TF.SameCoordinates,001FDD04-7A3F-48FA-9A57-AA4991743B26*
G04*
G04*
G04 #@! TF.FilePolarity,Positive*
G04*
G01*
G75*
%ADD12C,0.00787*%
%ADD42C,0.00394*%
D12*
X231449Y87854D02*
X262551D01*
X231449Y57146D02*
Y87854D01*
Y57146D02*
X262551D01*
Y87854D01*
X156000Y14500D02*
Y65500D01*
X128000D02*
X156000D01*
X128000Y14500D02*
Y65500D01*
Y14500D02*
X156000D01*
X89449Y105854D02*
X120551D01*
X89449Y75146D02*
Y105854D01*
Y75146D02*
X120551D01*
Y105854D01*
D42*
X174339Y147445D02*
X174075Y148429D01*
X173354Y149150D01*
X172370Y149413D01*
X171386Y149150D01*
X170665Y148429D01*
X170402Y147445D01*
X170665Y146461D01*
X171386Y145740D01*
X172370Y145476D01*
X173354Y145740D01*
X174075Y146461D01*
X174339Y147445D01*
X85094Y75846D02*
X86098Y76005D01*
X87003Y76467D01*
X87722Y77185D01*
X88183Y78091D01*
X88342Y79094D01*
X88342Y90905D02*
X88183Y91909D01*
X87722Y92814D01*
X87003Y93533D01*
X86098Y93994D01*
X85094Y94153D01*
X46905D02*
X45902Y93994D01*
X44996Y93533D01*
X44278Y92814D01*
X43816Y91909D01*
X43657Y90905D01*
X43657Y79094D02*
X43816Y78091D01*
X44278Y77185D01*
X44996Y76467D01*
X45902Y76005D01*
X46905Y75846D01*
X84012Y77716D02*
X84897Y77954D01*
X85546Y78602D01*
X85783Y79488D01*
Y90512D02*
X85546Y91397D01*
X84897Y92046D01*
X84012Y92283D01*
X47988D02*
X47102Y92046D01*
X46454Y91397D01*
X46216Y90512D01*
Y79488D02*
X46454Y78602D01*
X47102Y77954D01*
X47988Y77716D01*
X33157Y94921D02*
Y135079D01*
X19969Y94921D02*
X38472D01*
X19969Y135079D02*
X38472D01*
Y94921D02*
Y135079D01*
X19969Y94921D02*
Y135079D01*
X168827Y12012D02*
X197173D01*
X168827Y150988D02*
X197173D01*
Y12012D02*
Y150988D01*
X168827Y12012D02*
Y150988D01*
X46905Y94153D02*
X85094D01*
X46905Y75846D02*
X85094D01*
X47988Y92283D02*
X84012D01*
X47988Y77716D02*
X84012D01*
X46216Y79488D02*
Y90511D01*
X43657Y79094D02*
Y90905D01*
X85783Y79488D02*
Y90511D01*
X88342Y79094D02*
Y90905D01*
M02*
