G04*
G04 #@! TF.GenerationSoftware,Altium Limited,Altium Designer,21.6.4 (81)*
G04*
G04 Layer_Color=16711935*
%FSLAX25Y25*%
%MOIN*%
G70*
G04*
G04 #@! TF.SameCoordinates,001FDD04-7A3F-48FA-9A57-AA4991743B26*
G04*
G04*
G04 #@! TF.FilePolarity,Positive*
G04*
G01*
G75*
%ADD12C,0.00787*%
G36*
X247879Y72186D02*
X247876D01*
X247871D01*
X247860Y72183D01*
X247846Y72181D01*
X247830Y72178D01*
X247814Y72175D01*
X247767Y72164D01*
X247718Y72151D01*
X247666Y72134D01*
X247614Y72112D01*
X247565Y72085D01*
X247560Y72082D01*
X247546Y72069D01*
X247524Y72050D01*
X247497Y72022D01*
X247464Y71987D01*
X247434Y71943D01*
X247401Y71891D01*
X247371Y71831D01*
Y71829D01*
X247369Y71823D01*
X247366Y71815D01*
X247360Y71801D01*
X247355Y71785D01*
X247347Y71766D01*
X247341Y71744D01*
X247336Y71719D01*
X247322Y71662D01*
X247308Y71594D01*
X247300Y71523D01*
X247298Y71443D01*
Y71411D01*
X247300Y71394D01*
Y71375D01*
X247306Y71332D01*
X247311Y71280D01*
X247319Y71222D01*
X247333Y71165D01*
X247352Y71110D01*
Y71108D01*
X247355Y71105D01*
X247358Y71097D01*
X247363Y71086D01*
X247377Y71061D01*
X247393Y71029D01*
X247415Y70993D01*
X247442Y70955D01*
X247472Y70922D01*
X247508Y70892D01*
X247513Y70889D01*
X247524Y70881D01*
X247546Y70868D01*
X247573Y70854D01*
X247606Y70843D01*
X247641Y70829D01*
X247682Y70821D01*
X247723Y70818D01*
X247726D01*
X247729D01*
X247743D01*
X247767Y70821D01*
X247794Y70827D01*
X247827Y70835D01*
X247863Y70848D01*
X247898Y70865D01*
X247931Y70889D01*
X247934Y70892D01*
X247944Y70903D01*
X247961Y70919D01*
X247983Y70944D01*
X248005Y70974D01*
X248029Y71015D01*
X248054Y71061D01*
X248078Y71116D01*
X248081Y71121D01*
X248084Y71127D01*
X248087Y71138D01*
X248089Y71149D01*
X248095Y71165D01*
X248103Y71187D01*
X248108Y71209D01*
X248116Y71239D01*
X248127Y71269D01*
X248136Y71307D01*
X248147Y71348D01*
X248160Y71394D01*
X248171Y71443D01*
X248187Y71501D01*
X248201Y71564D01*
Y71566D01*
X248204Y71577D01*
X248209Y71596D01*
X248215Y71618D01*
X248223Y71648D01*
X248231Y71681D01*
X248242Y71714D01*
X248253Y71752D01*
X248278Y71834D01*
X248305Y71913D01*
X248319Y71951D01*
X248332Y71987D01*
X248346Y72020D01*
X248359Y72047D01*
Y72050D01*
X248365Y72055D01*
X248370Y72063D01*
X248376Y72077D01*
X248395Y72110D01*
X248422Y72148D01*
X248458Y72194D01*
X248496Y72238D01*
X248542Y72282D01*
X248591Y72317D01*
X248594D01*
X248597Y72320D01*
X248605Y72325D01*
X248616Y72331D01*
X248646Y72344D01*
X248684Y72361D01*
X248731Y72377D01*
X248785Y72391D01*
X248845Y72402D01*
X248908Y72404D01*
X248911D01*
X248916D01*
X248927D01*
X248941Y72402D01*
X248957D01*
X248976Y72399D01*
X249026Y72391D01*
X249080Y72377D01*
X249137Y72361D01*
X249200Y72334D01*
X249263Y72298D01*
X249266D01*
X249271Y72293D01*
X249279Y72287D01*
X249290Y72279D01*
X249320Y72252D01*
X249359Y72216D01*
X249400Y72172D01*
X249441Y72118D01*
X249482Y72055D01*
X249517Y71981D01*
Y71979D01*
X249520Y71973D01*
X249525Y71960D01*
X249531Y71946D01*
X249536Y71927D01*
X249544Y71902D01*
X249552Y71875D01*
X249561Y71845D01*
X249569Y71812D01*
X249577Y71777D01*
X249591Y71700D01*
X249602Y71613D01*
X249604Y71520D01*
Y71474D01*
X249602Y71449D01*
X249599Y71419D01*
X249596Y71389D01*
X249593Y71353D01*
X249583Y71277D01*
X249566Y71192D01*
X249542Y71108D01*
X249512Y71026D01*
Y71023D01*
X249506Y71018D01*
X249503Y71004D01*
X249495Y70990D01*
X249484Y70974D01*
X249473Y70952D01*
X249446Y70906D01*
X249408Y70851D01*
X249361Y70797D01*
X249309Y70745D01*
X249247Y70698D01*
X249244Y70696D01*
X249238Y70693D01*
X249230Y70687D01*
X249217Y70679D01*
X249200Y70671D01*
X249181Y70660D01*
X249157Y70652D01*
X249132Y70638D01*
X249075Y70616D01*
X249007Y70597D01*
X248933Y70581D01*
X248851Y70573D01*
X248826Y70892D01*
X248829D01*
X248837Y70895D01*
X248848D01*
X248865Y70898D01*
X248886Y70903D01*
X248908Y70908D01*
X248960Y70925D01*
X249017Y70947D01*
X249078Y70979D01*
X249135Y71018D01*
X249159Y71042D01*
X249184Y71070D01*
X249187Y71072D01*
X249189Y71075D01*
X249195Y71086D01*
X249203Y71097D01*
X249211Y71113D01*
X249222Y71132D01*
X249233Y71154D01*
X249247Y71179D01*
X249258Y71209D01*
X249269Y71241D01*
X249279Y71277D01*
X249288Y71315D01*
X249296Y71359D01*
X249301Y71405D01*
X249307Y71455D01*
Y71534D01*
X249304Y71556D01*
Y71580D01*
X249301Y71607D01*
X249299Y71640D01*
X249293Y71673D01*
X249279Y71747D01*
X249260Y71818D01*
X249233Y71886D01*
X249214Y71919D01*
X249195Y71946D01*
Y71949D01*
X249189Y71951D01*
X249176Y71968D01*
X249151Y71990D01*
X249118Y72014D01*
X249080Y72039D01*
X249034Y72061D01*
X248985Y72077D01*
X248957Y72080D01*
X248927Y72082D01*
X248925D01*
X248922D01*
X248905Y72080D01*
X248881Y72077D01*
X248851Y72071D01*
X248815Y72058D01*
X248777Y72041D01*
X248742Y72020D01*
X248706Y71987D01*
X248704Y71981D01*
X248698Y71976D01*
X248690Y71965D01*
X248682Y71951D01*
X248673Y71935D01*
X248662Y71913D01*
X248649Y71889D01*
X248635Y71859D01*
X248622Y71823D01*
X248608Y71782D01*
X248591Y71736D01*
X248575Y71681D01*
X248559Y71624D01*
X248540Y71558D01*
X248523Y71485D01*
Y71479D01*
X248521Y71465D01*
X248515Y71446D01*
X248507Y71419D01*
X248501Y71386D01*
X248491Y71348D01*
X248482Y71307D01*
X248469Y71263D01*
X248444Y71171D01*
X248419Y71078D01*
X248406Y71034D01*
X248392Y70996D01*
X248379Y70958D01*
X248365Y70928D01*
Y70925D01*
X248359Y70917D01*
X248354Y70906D01*
X248346Y70892D01*
X248338Y70873D01*
X248324Y70851D01*
X248294Y70805D01*
X248258Y70750D01*
X248215Y70698D01*
X248163Y70646D01*
X248136Y70625D01*
X248108Y70603D01*
X248106D01*
X248100Y70597D01*
X248092Y70592D01*
X248081Y70586D01*
X248067Y70578D01*
X248048Y70570D01*
X248005Y70548D01*
X247953Y70529D01*
X247893Y70513D01*
X247824Y70502D01*
X247751Y70496D01*
X247748D01*
X247743D01*
X247732D01*
X247718Y70499D01*
X247699D01*
X247680Y70502D01*
X247628Y70510D01*
X247570Y70524D01*
X247508Y70545D01*
X247442Y70575D01*
X247407Y70592D01*
X247374Y70614D01*
X247371D01*
X247366Y70619D01*
X247358Y70625D01*
X247344Y70635D01*
X247314Y70660D01*
X247273Y70698D01*
X247229Y70745D01*
X247183Y70802D01*
X247139Y70868D01*
X247098Y70944D01*
Y70947D01*
X247093Y70955D01*
X247090Y70966D01*
X247082Y70982D01*
X247076Y71001D01*
X247068Y71026D01*
X247057Y71053D01*
X247049Y71086D01*
X247041Y71119D01*
X247030Y71157D01*
X247016Y71239D01*
X247005Y71329D01*
X247000Y71427D01*
Y71460D01*
X247003Y71485D01*
Y71514D01*
X247005Y71547D01*
X247008Y71586D01*
X247014Y71629D01*
X247024Y71719D01*
X247041Y71815D01*
X247065Y71910D01*
X247098Y72003D01*
Y72006D01*
X247104Y72014D01*
X247109Y72025D01*
X247117Y72041D01*
X247128Y72061D01*
X247139Y72082D01*
X247172Y72134D01*
X247213Y72192D01*
X247265Y72252D01*
X247325Y72312D01*
X247396Y72364D01*
X247398Y72366D01*
X247404Y72369D01*
X247415Y72374D01*
X247431Y72383D01*
X247450Y72394D01*
X247472Y72404D01*
X247499Y72418D01*
X247530Y72429D01*
X247560Y72443D01*
X247595Y72454D01*
X247674Y72475D01*
X247759Y72492D01*
X247805Y72497D01*
X247852Y72500D01*
X247879Y72186D01*
D02*
G37*
G36*
X249561Y69926D02*
X247906Y69546D01*
X247904D01*
X247895Y69543D01*
X247882Y69541D01*
X247863Y69535D01*
X247838Y69530D01*
X247811Y69524D01*
X247781Y69516D01*
X247745Y69508D01*
X247707Y69500D01*
X247666Y69492D01*
X247581Y69475D01*
X247489Y69456D01*
X247393Y69440D01*
X247398D01*
X247410Y69434D01*
X247431Y69432D01*
X247456Y69423D01*
X247489Y69418D01*
X247524Y69410D01*
X247562Y69399D01*
X247601Y69391D01*
X247682Y69369D01*
X247721Y69361D01*
X247759Y69350D01*
X247792Y69341D01*
X247819Y69336D01*
X247841Y69331D01*
X247857Y69325D01*
X249561Y68845D01*
Y68443D01*
X248283Y68086D01*
X248278Y68083D01*
X248261Y68080D01*
X248237Y68072D01*
X248201Y68064D01*
X248160Y68053D01*
X248111Y68039D01*
X248057Y68026D01*
X247994Y68009D01*
X247928Y67993D01*
X247857Y67976D01*
X247783Y67960D01*
X247707Y67944D01*
X247551Y67914D01*
X247393Y67886D01*
X247396D01*
X247404Y67884D01*
X247418Y67881D01*
X247434Y67878D01*
X247459Y67873D01*
X247486Y67867D01*
X247516Y67859D01*
X247551Y67851D01*
X247590Y67843D01*
X247631Y67835D01*
X247677Y67824D01*
X247723Y67813D01*
X247827Y67788D01*
X247939Y67761D01*
X249561Y67365D01*
Y67029D01*
X247041Y67720D01*
Y68045D01*
X248960Y68572D01*
X248963D01*
X248971Y68574D01*
X248982Y68577D01*
X248998Y68582D01*
X249017Y68588D01*
X249039Y68593D01*
X249088Y68607D01*
X249137Y68621D01*
X249187Y68634D01*
X249208Y68640D01*
X249228Y68645D01*
X249244Y68651D01*
X249255Y68654D01*
X249252D01*
X249247Y68656D01*
X249238D01*
X249225Y68662D01*
X249211Y68664D01*
X249192Y68667D01*
X249154Y68678D01*
X249108Y68689D01*
X249056Y68703D01*
X249007Y68716D01*
X248960Y68730D01*
X247041Y69260D01*
Y69606D01*
X249561Y70270D01*
Y69926D01*
D02*
G37*
G36*
X248938Y66606D02*
X248941Y66598D01*
X248949Y66584D01*
X248957Y66565D01*
X248968Y66543D01*
X248985Y66516D01*
X249001Y66486D01*
X249017Y66456D01*
X249061Y66385D01*
X249113Y66308D01*
X249168Y66229D01*
X249230Y66155D01*
X249233Y66153D01*
X249238Y66147D01*
X249247Y66136D01*
X249260Y66123D01*
X249277Y66109D01*
X249293Y66090D01*
X249340Y66049D01*
X249389Y66003D01*
X249446Y65956D01*
X249506Y65915D01*
X249569Y65880D01*
Y65680D01*
X247041D01*
Y65989D01*
X249009D01*
X249004Y65995D01*
X248990Y66008D01*
X248971Y66033D01*
X248944Y66068D01*
X248911Y66109D01*
X248875Y66161D01*
X248837Y66218D01*
X248796Y66284D01*
Y66287D01*
X248791Y66292D01*
X248785Y66300D01*
X248780Y66314D01*
X248769Y66330D01*
X248761Y66349D01*
X248736Y66393D01*
X248712Y66442D01*
X248684Y66497D01*
X248660Y66554D01*
X248638Y66609D01*
X248936D01*
X248938Y66606D01*
D02*
G37*
G36*
X135576Y39997D02*
X135598D01*
X135628Y39995D01*
X135661Y39989D01*
X135696Y39984D01*
X135737Y39976D01*
X135781Y39965D01*
X135825Y39951D01*
X135871Y39937D01*
X135918Y39918D01*
X135964Y39894D01*
X136008Y39869D01*
X136054Y39839D01*
X136095Y39803D01*
X136098Y39801D01*
X136103Y39795D01*
X136114Y39784D01*
X136130Y39768D01*
X136147Y39749D01*
X136166Y39724D01*
X136185Y39697D01*
X136207Y39664D01*
X136229Y39632D01*
X136251Y39591D01*
X136273Y39550D01*
X136292Y39503D01*
X136308Y39454D01*
X136324Y39402D01*
X136335Y39348D01*
X136344Y39290D01*
X136035Y39249D01*
Y39252D01*
X136032Y39260D01*
X136030Y39274D01*
X136024Y39293D01*
X136019Y39315D01*
X136013Y39339D01*
X135994Y39397D01*
X135969Y39459D01*
X135939Y39522D01*
X135901Y39580D01*
X135879Y39604D01*
X135857Y39629D01*
X135855D01*
X135852Y39634D01*
X135844Y39640D01*
X135836Y39648D01*
X135808Y39664D01*
X135770Y39686D01*
X135724Y39708D01*
X135672Y39724D01*
X135609Y39738D01*
X135544Y39743D01*
X135522D01*
X135505Y39741D01*
X135489Y39738D01*
X135464Y39735D01*
X135415Y39724D01*
X135355Y39708D01*
X135292Y39681D01*
X135262Y39661D01*
X135232Y39642D01*
X135202Y39621D01*
X135172Y39593D01*
X135170Y39591D01*
X135167Y39585D01*
X135159Y39577D01*
X135148Y39566D01*
X135137Y39552D01*
X135126Y39533D01*
X135112Y39514D01*
X135096Y39489D01*
X135069Y39435D01*
X135047Y39372D01*
X135028Y39298D01*
X135025Y39260D01*
X135022Y39219D01*
Y39217D01*
Y39211D01*
Y39197D01*
X135025Y39184D01*
X135028Y39165D01*
X135030Y39146D01*
X135038Y39096D01*
X135058Y39039D01*
X135082Y38982D01*
X135099Y38952D01*
X135118Y38924D01*
X135140Y38897D01*
X135164Y38870D01*
X135167Y38867D01*
X135170Y38864D01*
X135178Y38856D01*
X135189Y38848D01*
X135202Y38837D01*
X135219Y38826D01*
X135260Y38799D01*
X135311Y38774D01*
X135372Y38752D01*
X135440Y38736D01*
X135478Y38733D01*
X135516Y38731D01*
X135533D01*
X135552Y38733D01*
X135576D01*
X135609Y38739D01*
X135645Y38744D01*
X135688Y38752D01*
X135735Y38763D01*
X135702Y38493D01*
X135696D01*
X135683Y38496D01*
X135666Y38499D01*
X135631D01*
X135617Y38496D01*
X135598D01*
X135579Y38493D01*
X135533Y38485D01*
X135478Y38474D01*
X135418Y38455D01*
X135355Y38430D01*
X135295Y38395D01*
X135292D01*
X135287Y38389D01*
X135282Y38384D01*
X135271Y38376D01*
X135243Y38351D01*
X135213Y38316D01*
X135186Y38272D01*
X135159Y38217D01*
X135148Y38187D01*
X135142Y38152D01*
X135137Y38116D01*
X135134Y38078D01*
Y38075D01*
Y38070D01*
Y38062D01*
X135137Y38048D01*
X135140Y38018D01*
X135148Y37977D01*
X135161Y37933D01*
X135183Y37887D01*
X135213Y37838D01*
X135230Y37816D01*
X135251Y37794D01*
X135257Y37789D01*
X135273Y37778D01*
X135298Y37759D01*
X135331Y37737D01*
X135374Y37718D01*
X135426Y37699D01*
X135484Y37688D01*
X135549Y37682D01*
X135565D01*
X135579Y37685D01*
X135596D01*
X135612Y37688D01*
X135655Y37696D01*
X135702Y37710D01*
X135754Y37731D01*
X135803Y37759D01*
X135852Y37797D01*
X135857Y37802D01*
X135871Y37819D01*
X135893Y37843D01*
X135915Y37882D01*
X135942Y37928D01*
X135967Y37988D01*
X135989Y38056D01*
X136005Y38135D01*
X136313Y38081D01*
Y38078D01*
X136311Y38067D01*
X136308Y38051D01*
X136302Y38029D01*
X136294Y38004D01*
X136286Y37974D01*
X136275Y37942D01*
X136262Y37906D01*
X136226Y37827D01*
X136207Y37789D01*
X136182Y37748D01*
X136155Y37710D01*
X136125Y37671D01*
X136092Y37633D01*
X136057Y37600D01*
X136054Y37598D01*
X136049Y37592D01*
X136035Y37584D01*
X136021Y37573D01*
X136000Y37559D01*
X135978Y37546D01*
X135950Y37529D01*
X135918Y37513D01*
X135885Y37499D01*
X135847Y37483D01*
X135806Y37469D01*
X135762Y37456D01*
X135713Y37445D01*
X135664Y37437D01*
X135612Y37431D01*
X135557Y37428D01*
X135522D01*
X135503Y37431D01*
X135484Y37434D01*
X135432Y37439D01*
X135374Y37450D01*
X135309Y37467D01*
X135243Y37488D01*
X135178Y37519D01*
X135175D01*
X135170Y37521D01*
X135161Y37527D01*
X135148Y37535D01*
X135118Y37554D01*
X135080Y37581D01*
X135036Y37617D01*
X134992Y37658D01*
X134948Y37704D01*
X134910Y37759D01*
Y37762D01*
X134907Y37764D01*
X134902Y37775D01*
X134897Y37786D01*
X134888Y37800D01*
X134880Y37816D01*
X134864Y37857D01*
X134847Y37906D01*
X134831Y37961D01*
X134820Y38021D01*
X134817Y38084D01*
Y38086D01*
Y38092D01*
Y38100D01*
Y38111D01*
X134823Y38144D01*
X134828Y38182D01*
X134839Y38228D01*
X134856Y38277D01*
X134878Y38329D01*
X134907Y38381D01*
Y38384D01*
X134910Y38387D01*
X134924Y38403D01*
X134943Y38428D01*
X134973Y38458D01*
X135009Y38493D01*
X135055Y38529D01*
X135107Y38561D01*
X135167Y38594D01*
X135164D01*
X135156Y38597D01*
X135145Y38600D01*
X135129Y38605D01*
X135112Y38611D01*
X135090Y38619D01*
X135038Y38640D01*
X134984Y38671D01*
X134927Y38706D01*
X134869Y38752D01*
X134820Y38810D01*
X134817Y38813D01*
X134815Y38818D01*
X134809Y38826D01*
X134801Y38840D01*
X134790Y38853D01*
X134779Y38873D01*
X134768Y38894D01*
X134757Y38922D01*
X134746Y38949D01*
X134736Y38979D01*
X134714Y39047D01*
X134700Y39126D01*
X134695Y39170D01*
Y39214D01*
Y39217D01*
Y39228D01*
X134697Y39247D01*
Y39268D01*
X134703Y39298D01*
X134708Y39331D01*
X134714Y39367D01*
X134725Y39408D01*
X134738Y39451D01*
X134755Y39495D01*
X134774Y39541D01*
X134798Y39588D01*
X134826Y39637D01*
X134858Y39683D01*
X134894Y39730D01*
X134938Y39773D01*
X134940Y39776D01*
X134948Y39784D01*
X134962Y39795D01*
X134981Y39809D01*
X135003Y39825D01*
X135033Y39844D01*
X135066Y39866D01*
X135104Y39885D01*
X135145Y39907D01*
X135191Y39929D01*
X135241Y39948D01*
X135295Y39965D01*
X135353Y39978D01*
X135413Y39989D01*
X135475Y39997D01*
X135544Y40000D01*
X135557D01*
X135576Y39997D01*
D02*
G37*
G36*
X140984Y39995D02*
X141015D01*
X141047Y39992D01*
X141086Y39989D01*
X141129Y39984D01*
X141219Y39973D01*
X141315Y39956D01*
X141410Y39932D01*
X141503Y39899D01*
X141506D01*
X141514Y39894D01*
X141525Y39888D01*
X141541Y39880D01*
X141560Y39869D01*
X141582Y39858D01*
X141634Y39825D01*
X141692Y39784D01*
X141752Y39733D01*
X141812Y39672D01*
X141864Y39601D01*
X141866Y39599D01*
X141869Y39593D01*
X141875Y39582D01*
X141883Y39566D01*
X141894Y39547D01*
X141904Y39525D01*
X141918Y39498D01*
X141929Y39468D01*
X141943Y39438D01*
X141954Y39402D01*
X141975Y39323D01*
X141992Y39238D01*
X141997Y39192D01*
X142000Y39146D01*
X141686Y39118D01*
Y39121D01*
Y39126D01*
X141683Y39137D01*
X141681Y39151D01*
X141678Y39167D01*
X141675Y39184D01*
X141664Y39230D01*
X141651Y39279D01*
X141634Y39331D01*
X141612Y39383D01*
X141585Y39432D01*
X141582Y39438D01*
X141569Y39451D01*
X141550Y39473D01*
X141522Y39500D01*
X141487Y39533D01*
X141443Y39563D01*
X141391Y39596D01*
X141331Y39626D01*
X141328D01*
X141323Y39629D01*
X141315Y39632D01*
X141301Y39637D01*
X141285Y39642D01*
X141266Y39651D01*
X141244Y39656D01*
X141219Y39661D01*
X141162Y39675D01*
X141094Y39689D01*
X141023Y39697D01*
X140944Y39700D01*
X140911D01*
X140894Y39697D01*
X140875D01*
X140832Y39692D01*
X140780Y39686D01*
X140722Y39678D01*
X140665Y39664D01*
X140611Y39645D01*
X140608D01*
X140605Y39642D01*
X140597Y39640D01*
X140586Y39634D01*
X140561Y39621D01*
X140529Y39604D01*
X140493Y39582D01*
X140455Y39555D01*
X140422Y39525D01*
X140392Y39489D01*
X140389Y39484D01*
X140381Y39473D01*
X140367Y39451D01*
X140354Y39424D01*
X140343Y39391D01*
X140329Y39356D01*
X140321Y39315D01*
X140318Y39274D01*
Y39271D01*
Y39268D01*
Y39255D01*
X140321Y39230D01*
X140326Y39203D01*
X140335Y39170D01*
X140348Y39135D01*
X140365Y39099D01*
X140389Y39066D01*
X140392Y39064D01*
X140403Y39053D01*
X140419Y39036D01*
X140444Y39015D01*
X140474Y38993D01*
X140515Y38968D01*
X140561Y38943D01*
X140616Y38919D01*
X140621Y38916D01*
X140627Y38914D01*
X140638Y38911D01*
X140649Y38908D01*
X140665Y38903D01*
X140687Y38894D01*
X140709Y38889D01*
X140739Y38881D01*
X140769Y38870D01*
X140807Y38862D01*
X140848Y38851D01*
X140894Y38837D01*
X140944Y38826D01*
X141001Y38810D01*
X141064Y38796D01*
X141066D01*
X141077Y38793D01*
X141096Y38788D01*
X141118Y38783D01*
X141148Y38774D01*
X141181Y38766D01*
X141214Y38755D01*
X141252Y38744D01*
X141334Y38720D01*
X141413Y38692D01*
X141451Y38679D01*
X141487Y38665D01*
X141520Y38651D01*
X141547Y38638D01*
X141550D01*
X141555Y38632D01*
X141563Y38627D01*
X141577Y38621D01*
X141610Y38602D01*
X141648Y38575D01*
X141694Y38539D01*
X141738Y38501D01*
X141782Y38455D01*
X141817Y38406D01*
Y38403D01*
X141820Y38400D01*
X141825Y38392D01*
X141831Y38381D01*
X141844Y38351D01*
X141861Y38313D01*
X141877Y38267D01*
X141891Y38212D01*
X141902Y38152D01*
X141904Y38089D01*
Y38086D01*
Y38081D01*
Y38070D01*
X141902Y38056D01*
Y38040D01*
X141899Y38021D01*
X141891Y37972D01*
X141877Y37917D01*
X141861Y37860D01*
X141833Y37797D01*
X141798Y37734D01*
Y37731D01*
X141793Y37726D01*
X141787Y37718D01*
X141779Y37707D01*
X141752Y37677D01*
X141716Y37639D01*
X141672Y37598D01*
X141618Y37557D01*
X141555Y37516D01*
X141481Y37480D01*
X141479D01*
X141473Y37477D01*
X141460Y37472D01*
X141446Y37467D01*
X141427Y37461D01*
X141402Y37453D01*
X141375Y37445D01*
X141345Y37437D01*
X141312Y37428D01*
X141277Y37420D01*
X141200Y37407D01*
X141113Y37396D01*
X141020Y37393D01*
X140974D01*
X140949Y37396D01*
X140919Y37398D01*
X140889Y37401D01*
X140853Y37404D01*
X140777Y37415D01*
X140692Y37431D01*
X140608Y37456D01*
X140526Y37486D01*
X140523D01*
X140518Y37491D01*
X140504Y37494D01*
X140490Y37502D01*
X140474Y37513D01*
X140452Y37524D01*
X140406Y37551D01*
X140351Y37589D01*
X140296Y37636D01*
X140245Y37688D01*
X140198Y37751D01*
X140196Y37753D01*
X140193Y37759D01*
X140187Y37767D01*
X140179Y37781D01*
X140171Y37797D01*
X140160Y37816D01*
X140152Y37841D01*
X140138Y37865D01*
X140116Y37922D01*
X140097Y37991D01*
X140081Y38065D01*
X140073Y38146D01*
X140392Y38171D01*
Y38168D01*
X140395Y38160D01*
Y38149D01*
X140398Y38133D01*
X140403Y38111D01*
X140408Y38089D01*
X140425Y38037D01*
X140447Y37980D01*
X140479Y37920D01*
X140518Y37863D01*
X140542Y37838D01*
X140569Y37813D01*
X140572Y37811D01*
X140575Y37808D01*
X140586Y37802D01*
X140597Y37794D01*
X140613Y37786D01*
X140632Y37775D01*
X140654Y37764D01*
X140679Y37751D01*
X140709Y37740D01*
X140742Y37729D01*
X140777Y37718D01*
X140815Y37710D01*
X140859Y37701D01*
X140905Y37696D01*
X140954Y37690D01*
X141034D01*
X141055Y37693D01*
X141080D01*
X141107Y37696D01*
X141140Y37699D01*
X141173Y37704D01*
X141247Y37718D01*
X141317Y37737D01*
X141386Y37764D01*
X141419Y37783D01*
X141446Y37802D01*
X141449D01*
X141451Y37808D01*
X141468Y37821D01*
X141490Y37846D01*
X141514Y37879D01*
X141539Y37917D01*
X141560Y37964D01*
X141577Y38013D01*
X141580Y38040D01*
X141582Y38070D01*
Y38073D01*
Y38075D01*
X141580Y38092D01*
X141577Y38116D01*
X141571Y38146D01*
X141558Y38182D01*
X141541Y38220D01*
X141520Y38256D01*
X141487Y38291D01*
X141481Y38294D01*
X141476Y38299D01*
X141465Y38307D01*
X141451Y38316D01*
X141435Y38324D01*
X141413Y38335D01*
X141388Y38348D01*
X141358Y38362D01*
X141323Y38376D01*
X141282Y38389D01*
X141236Y38406D01*
X141181Y38422D01*
X141124Y38438D01*
X141058Y38458D01*
X140984Y38474D01*
X140979D01*
X140965Y38477D01*
X140946Y38482D01*
X140919Y38490D01*
X140886Y38496D01*
X140848Y38507D01*
X140807Y38515D01*
X140763Y38529D01*
X140671Y38553D01*
X140578Y38578D01*
X140534Y38591D01*
X140496Y38605D01*
X140458Y38619D01*
X140427Y38632D01*
X140425D01*
X140417Y38638D01*
X140406Y38643D01*
X140392Y38651D01*
X140373Y38660D01*
X140351Y38673D01*
X140305Y38703D01*
X140250Y38739D01*
X140198Y38783D01*
X140146Y38834D01*
X140124Y38862D01*
X140103Y38889D01*
Y38892D01*
X140097Y38897D01*
X140092Y38905D01*
X140086Y38916D01*
X140078Y38930D01*
X140070Y38949D01*
X140048Y38993D01*
X140029Y39044D01*
X140013Y39105D01*
X140002Y39173D01*
X139996Y39247D01*
Y39249D01*
Y39255D01*
Y39266D01*
X139999Y39279D01*
Y39298D01*
X140002Y39318D01*
X140010Y39369D01*
X140024Y39427D01*
X140045Y39489D01*
X140075Y39555D01*
X140092Y39591D01*
X140114Y39623D01*
Y39626D01*
X140119Y39632D01*
X140124Y39640D01*
X140135Y39653D01*
X140160Y39683D01*
X140198Y39724D01*
X140245Y39768D01*
X140302Y39814D01*
X140367Y39858D01*
X140444Y39899D01*
X140447D01*
X140455Y39904D01*
X140466Y39907D01*
X140482Y39915D01*
X140501Y39921D01*
X140526Y39929D01*
X140553Y39940D01*
X140586Y39948D01*
X140619Y39956D01*
X140657Y39967D01*
X140739Y39981D01*
X140829Y39992D01*
X140927Y39997D01*
X140960D01*
X140984Y39995D01*
D02*
G37*
G36*
X139770Y37437D02*
X139426D01*
X139046Y39091D01*
Y39094D01*
X139043Y39102D01*
X139041Y39116D01*
X139035Y39135D01*
X139030Y39159D01*
X139024Y39186D01*
X139016Y39217D01*
X139008Y39252D01*
X139000Y39290D01*
X138992Y39331D01*
X138975Y39416D01*
X138956Y39509D01*
X138940Y39604D01*
Y39599D01*
X138934Y39588D01*
X138932Y39566D01*
X138923Y39541D01*
X138918Y39509D01*
X138910Y39473D01*
X138899Y39435D01*
X138891Y39397D01*
X138869Y39315D01*
X138860Y39277D01*
X138850Y39238D01*
X138841Y39206D01*
X138836Y39178D01*
X138830Y39156D01*
X138825Y39140D01*
X138345Y37437D01*
X137943D01*
X137586Y38714D01*
X137583Y38720D01*
X137580Y38736D01*
X137572Y38761D01*
X137564Y38796D01*
X137553Y38837D01*
X137539Y38886D01*
X137526Y38941D01*
X137509Y39004D01*
X137493Y39069D01*
X137476Y39140D01*
X137460Y39214D01*
X137444Y39290D01*
X137414Y39446D01*
X137386Y39604D01*
Y39601D01*
X137384Y39593D01*
X137381Y39580D01*
X137378Y39563D01*
X137373Y39539D01*
X137367Y39511D01*
X137359Y39481D01*
X137351Y39446D01*
X137343Y39408D01*
X137335Y39367D01*
X137323Y39320D01*
X137313Y39274D01*
X137288Y39170D01*
X137261Y39058D01*
X136865Y37437D01*
X136529D01*
X137220Y39956D01*
X137545D01*
X138072Y38037D01*
Y38034D01*
X138074Y38026D01*
X138077Y38015D01*
X138083Y37999D01*
X138088Y37980D01*
X138093Y37958D01*
X138107Y37909D01*
X138121Y37860D01*
X138134Y37811D01*
X138140Y37789D01*
X138145Y37770D01*
X138151Y37753D01*
X138154Y37742D01*
Y37745D01*
X138156Y37751D01*
Y37759D01*
X138162Y37772D01*
X138164Y37786D01*
X138167Y37805D01*
X138178Y37843D01*
X138189Y37890D01*
X138203Y37942D01*
X138216Y37991D01*
X138230Y38037D01*
X138760Y39956D01*
X139106D01*
X139770Y37437D01*
D02*
G37*
G36*
X105879Y90186D02*
X105876D01*
X105871D01*
X105860Y90183D01*
X105846Y90181D01*
X105830Y90178D01*
X105814Y90175D01*
X105767Y90164D01*
X105718Y90151D01*
X105666Y90134D01*
X105614Y90112D01*
X105565Y90085D01*
X105560Y90082D01*
X105546Y90069D01*
X105524Y90050D01*
X105497Y90022D01*
X105464Y89987D01*
X105434Y89943D01*
X105401Y89891D01*
X105371Y89831D01*
Y89828D01*
X105368Y89823D01*
X105366Y89815D01*
X105360Y89801D01*
X105355Y89785D01*
X105347Y89766D01*
X105341Y89744D01*
X105336Y89719D01*
X105322Y89662D01*
X105308Y89594D01*
X105300Y89523D01*
X105298Y89443D01*
Y89411D01*
X105300Y89394D01*
Y89375D01*
X105306Y89332D01*
X105311Y89280D01*
X105319Y89222D01*
X105333Y89165D01*
X105352Y89110D01*
Y89108D01*
X105355Y89105D01*
X105358Y89097D01*
X105363Y89086D01*
X105377Y89061D01*
X105393Y89029D01*
X105415Y88993D01*
X105442Y88955D01*
X105472Y88922D01*
X105508Y88892D01*
X105513Y88889D01*
X105524Y88881D01*
X105546Y88867D01*
X105573Y88854D01*
X105606Y88843D01*
X105641Y88829D01*
X105682Y88821D01*
X105723Y88818D01*
X105726D01*
X105729D01*
X105743D01*
X105767Y88821D01*
X105794Y88827D01*
X105827Y88835D01*
X105863Y88848D01*
X105898Y88865D01*
X105931Y88889D01*
X105934Y88892D01*
X105945Y88903D01*
X105961Y88919D01*
X105983Y88944D01*
X106005Y88974D01*
X106029Y89015D01*
X106054Y89061D01*
X106078Y89116D01*
X106081Y89121D01*
X106084Y89127D01*
X106087Y89138D01*
X106089Y89149D01*
X106095Y89165D01*
X106103Y89187D01*
X106108Y89209D01*
X106116Y89239D01*
X106127Y89269D01*
X106136Y89307D01*
X106147Y89348D01*
X106160Y89394D01*
X106171Y89443D01*
X106187Y89501D01*
X106201Y89564D01*
Y89566D01*
X106204Y89577D01*
X106209Y89596D01*
X106215Y89618D01*
X106223Y89648D01*
X106231Y89681D01*
X106242Y89714D01*
X106253Y89752D01*
X106278Y89834D01*
X106305Y89913D01*
X106318Y89951D01*
X106332Y89987D01*
X106346Y90020D01*
X106360Y90047D01*
Y90050D01*
X106365Y90055D01*
X106370Y90063D01*
X106376Y90077D01*
X106395Y90110D01*
X106422Y90148D01*
X106458Y90194D01*
X106496Y90238D01*
X106542Y90282D01*
X106591Y90317D01*
X106594D01*
X106597Y90320D01*
X106605Y90325D01*
X106616Y90331D01*
X106646Y90344D01*
X106684Y90361D01*
X106731Y90377D01*
X106785Y90391D01*
X106845Y90402D01*
X106908Y90404D01*
X106911D01*
X106916D01*
X106927D01*
X106941Y90402D01*
X106957D01*
X106976Y90399D01*
X107026Y90391D01*
X107080Y90377D01*
X107138Y90361D01*
X107200Y90333D01*
X107263Y90298D01*
X107266D01*
X107271Y90293D01*
X107280Y90287D01*
X107290Y90279D01*
X107320Y90252D01*
X107359Y90216D01*
X107400Y90172D01*
X107441Y90118D01*
X107482Y90055D01*
X107517Y89981D01*
Y89979D01*
X107520Y89973D01*
X107525Y89960D01*
X107531Y89946D01*
X107536Y89927D01*
X107544Y89902D01*
X107553Y89875D01*
X107561Y89845D01*
X107569Y89812D01*
X107577Y89777D01*
X107591Y89700D01*
X107602Y89613D01*
X107604Y89520D01*
Y89474D01*
X107602Y89449D01*
X107599Y89419D01*
X107596Y89389D01*
X107594Y89353D01*
X107582Y89277D01*
X107566Y89192D01*
X107542Y89108D01*
X107512Y89026D01*
Y89023D01*
X107506Y89018D01*
X107503Y89004D01*
X107495Y88990D01*
X107484Y88974D01*
X107473Y88952D01*
X107446Y88906D01*
X107408Y88851D01*
X107361Y88797D01*
X107309Y88745D01*
X107247Y88698D01*
X107244Y88696D01*
X107239Y88693D01*
X107230Y88687D01*
X107217Y88679D01*
X107200Y88671D01*
X107181Y88660D01*
X107157Y88652D01*
X107132Y88638D01*
X107075Y88616D01*
X107007Y88597D01*
X106933Y88581D01*
X106851Y88573D01*
X106826Y88892D01*
X106829D01*
X106837Y88895D01*
X106848D01*
X106865Y88898D01*
X106886Y88903D01*
X106908Y88908D01*
X106960Y88925D01*
X107017Y88947D01*
X107078Y88979D01*
X107135Y89018D01*
X107159Y89042D01*
X107184Y89069D01*
X107187Y89072D01*
X107189Y89075D01*
X107195Y89086D01*
X107203Y89097D01*
X107211Y89113D01*
X107222Y89132D01*
X107233Y89154D01*
X107247Y89179D01*
X107258Y89209D01*
X107269Y89241D01*
X107280Y89277D01*
X107288Y89315D01*
X107296Y89359D01*
X107301Y89405D01*
X107307Y89455D01*
Y89534D01*
X107304Y89556D01*
Y89580D01*
X107301Y89607D01*
X107299Y89640D01*
X107293Y89673D01*
X107280Y89747D01*
X107260Y89818D01*
X107233Y89886D01*
X107214Y89919D01*
X107195Y89946D01*
Y89949D01*
X107189Y89951D01*
X107176Y89968D01*
X107151Y89990D01*
X107118Y90014D01*
X107080Y90039D01*
X107034Y90061D01*
X106985Y90077D01*
X106957Y90080D01*
X106927Y90082D01*
X106925D01*
X106922D01*
X106905Y90080D01*
X106881Y90077D01*
X106851Y90071D01*
X106815Y90058D01*
X106777Y90041D01*
X106742Y90020D01*
X106706Y89987D01*
X106703Y89981D01*
X106698Y89976D01*
X106690Y89965D01*
X106682Y89951D01*
X106673Y89935D01*
X106662Y89913D01*
X106649Y89889D01*
X106635Y89859D01*
X106622Y89823D01*
X106608Y89782D01*
X106591Y89736D01*
X106575Y89681D01*
X106559Y89624D01*
X106540Y89558D01*
X106523Y89485D01*
Y89479D01*
X106521Y89465D01*
X106515Y89446D01*
X106507Y89419D01*
X106501Y89386D01*
X106491Y89348D01*
X106482Y89307D01*
X106469Y89263D01*
X106444Y89170D01*
X106420Y89078D01*
X106406Y89034D01*
X106392Y88996D01*
X106379Y88958D01*
X106365Y88928D01*
Y88925D01*
X106360Y88917D01*
X106354Y88906D01*
X106346Y88892D01*
X106338Y88873D01*
X106324Y88851D01*
X106294Y88805D01*
X106258Y88750D01*
X106215Y88698D01*
X106163Y88646D01*
X106136Y88625D01*
X106108Y88603D01*
X106106D01*
X106100Y88597D01*
X106092Y88592D01*
X106081Y88586D01*
X106067Y88578D01*
X106048Y88570D01*
X106005Y88548D01*
X105953Y88529D01*
X105893Y88513D01*
X105824Y88502D01*
X105751Y88496D01*
X105748D01*
X105743D01*
X105732D01*
X105718Y88499D01*
X105699D01*
X105680Y88502D01*
X105628Y88510D01*
X105570Y88524D01*
X105508Y88545D01*
X105442Y88575D01*
X105407Y88592D01*
X105374Y88614D01*
X105371D01*
X105366Y88619D01*
X105358Y88625D01*
X105344Y88635D01*
X105314Y88660D01*
X105273Y88698D01*
X105229Y88745D01*
X105183Y88802D01*
X105139Y88867D01*
X105098Y88944D01*
Y88947D01*
X105093Y88955D01*
X105090Y88966D01*
X105082Y88982D01*
X105076Y89001D01*
X105068Y89026D01*
X105057Y89053D01*
X105049Y89086D01*
X105041Y89119D01*
X105030Y89157D01*
X105016Y89239D01*
X105005Y89329D01*
X105000Y89427D01*
Y89460D01*
X105003Y89485D01*
Y89514D01*
X105005Y89547D01*
X105008Y89586D01*
X105014Y89629D01*
X105025Y89719D01*
X105041Y89815D01*
X105066Y89910D01*
X105098Y90003D01*
Y90006D01*
X105104Y90014D01*
X105109Y90025D01*
X105117Y90041D01*
X105128Y90061D01*
X105139Y90082D01*
X105172Y90134D01*
X105213Y90192D01*
X105265Y90252D01*
X105325Y90312D01*
X105396Y90364D01*
X105398Y90366D01*
X105404Y90369D01*
X105415Y90374D01*
X105431Y90383D01*
X105450Y90394D01*
X105472Y90404D01*
X105499Y90418D01*
X105530Y90429D01*
X105560Y90443D01*
X105595Y90454D01*
X105674Y90475D01*
X105759Y90492D01*
X105805Y90497D01*
X105852Y90500D01*
X105879Y90186D01*
D02*
G37*
G36*
X107561Y87926D02*
X105906Y87546D01*
X105904D01*
X105895Y87543D01*
X105882Y87541D01*
X105863Y87535D01*
X105838Y87530D01*
X105811Y87524D01*
X105781Y87516D01*
X105745Y87508D01*
X105707Y87500D01*
X105666Y87492D01*
X105581Y87475D01*
X105489Y87456D01*
X105393Y87440D01*
X105398D01*
X105409Y87434D01*
X105431Y87432D01*
X105456Y87423D01*
X105489Y87418D01*
X105524Y87410D01*
X105562Y87399D01*
X105601Y87391D01*
X105682Y87369D01*
X105721Y87361D01*
X105759Y87350D01*
X105792Y87341D01*
X105819Y87336D01*
X105841Y87331D01*
X105857Y87325D01*
X107561Y86845D01*
Y86443D01*
X106283Y86086D01*
X106278Y86083D01*
X106261Y86080D01*
X106237Y86072D01*
X106201Y86064D01*
X106160Y86053D01*
X106111Y86039D01*
X106056Y86026D01*
X105994Y86009D01*
X105928Y85993D01*
X105857Y85976D01*
X105783Y85960D01*
X105707Y85944D01*
X105551Y85914D01*
X105393Y85886D01*
X105396D01*
X105404Y85884D01*
X105418Y85881D01*
X105434Y85878D01*
X105459Y85873D01*
X105486Y85867D01*
X105516Y85859D01*
X105551Y85851D01*
X105590Y85843D01*
X105631Y85834D01*
X105677Y85824D01*
X105723Y85813D01*
X105827Y85788D01*
X105939Y85761D01*
X107561Y85365D01*
Y85029D01*
X105041Y85720D01*
Y86045D01*
X106960Y86572D01*
X106963D01*
X106971Y86574D01*
X106982Y86577D01*
X106998Y86582D01*
X107017Y86588D01*
X107039Y86593D01*
X107088Y86607D01*
X107138Y86621D01*
X107187Y86634D01*
X107209Y86640D01*
X107228Y86645D01*
X107244Y86651D01*
X107255Y86654D01*
X107252D01*
X107247Y86656D01*
X107239D01*
X107225Y86662D01*
X107211Y86664D01*
X107192Y86667D01*
X107154Y86678D01*
X107107Y86689D01*
X107056Y86703D01*
X107007Y86716D01*
X106960Y86730D01*
X105041Y87260D01*
Y87606D01*
X107561Y88270D01*
Y87926D01*
D02*
G37*
G36*
X105109Y84884D02*
X105142Y84882D01*
X105177Y84873D01*
X105216Y84865D01*
X105254Y84852D01*
X105257D01*
X105262Y84849D01*
X105270Y84846D01*
X105284Y84841D01*
X105298Y84833D01*
X105317Y84824D01*
X105360Y84803D01*
X105412Y84775D01*
X105470Y84740D01*
X105530Y84699D01*
X105590Y84650D01*
X105592Y84647D01*
X105598Y84644D01*
X105606Y84636D01*
X105620Y84622D01*
X105633Y84609D01*
X105652Y84590D01*
X105674Y84570D01*
X105699Y84546D01*
X105726Y84519D01*
X105753Y84489D01*
X105786Y84456D01*
X105819Y84418D01*
X105854Y84379D01*
X105890Y84336D01*
X105928Y84292D01*
X105969Y84243D01*
X105972Y84237D01*
X105985Y84224D01*
X106002Y84205D01*
X106026Y84177D01*
X106054Y84145D01*
X106087Y84106D01*
X106122Y84063D01*
X106163Y84019D01*
X106248Y83926D01*
X106338Y83836D01*
X106381Y83792D01*
X106425Y83751D01*
X106466Y83716D01*
X106504Y83686D01*
X106507Y83683D01*
X106512Y83680D01*
X106523Y83672D01*
X106537Y83664D01*
X106556Y83650D01*
X106575Y83640D01*
X106624Y83612D01*
X106682Y83585D01*
X106744Y83560D01*
X106810Y83544D01*
X106843Y83541D01*
X106876Y83539D01*
X106878D01*
X106884D01*
X106895D01*
X106905Y83541D01*
X106922D01*
X106941Y83547D01*
X106982Y83555D01*
X107031Y83571D01*
X107083Y83596D01*
X107110Y83609D01*
X107135Y83629D01*
X107159Y83648D01*
X107184Y83672D01*
X107187Y83675D01*
X107189Y83678D01*
X107195Y83686D01*
X107203Y83697D01*
X107214Y83710D01*
X107225Y83727D01*
X107249Y83765D01*
X107271Y83817D01*
X107293Y83874D01*
X107307Y83943D01*
X107312Y83981D01*
Y84041D01*
X107309Y84057D01*
Y84076D01*
X107304Y84098D01*
X107296Y84147D01*
X107280Y84205D01*
X107255Y84265D01*
X107239Y84295D01*
X107222Y84325D01*
X107200Y84352D01*
X107176Y84379D01*
X107173Y84382D01*
X107170Y84385D01*
X107162Y84390D01*
X107151Y84401D01*
X107138Y84409D01*
X107121Y84420D01*
X107102Y84434D01*
X107080Y84445D01*
X107056Y84459D01*
X107028Y84469D01*
X106963Y84491D01*
X106892Y84508D01*
X106851Y84510D01*
X106807Y84513D01*
X106840Y84830D01*
X106845D01*
X106856Y84827D01*
X106873Y84824D01*
X106897Y84822D01*
X106927Y84816D01*
X106963Y84808D01*
X107001Y84800D01*
X107042Y84786D01*
X107083Y84772D01*
X107129Y84756D01*
X107173Y84734D01*
X107217Y84712D01*
X107263Y84685D01*
X107304Y84655D01*
X107345Y84622D01*
X107380Y84584D01*
X107383Y84581D01*
X107389Y84573D01*
X107397Y84562D01*
X107411Y84546D01*
X107424Y84524D01*
X107441Y84497D01*
X107457Y84467D01*
X107476Y84431D01*
X107492Y84393D01*
X107509Y84349D01*
X107525Y84303D01*
X107539Y84251D01*
X107553Y84197D01*
X107561Y84139D01*
X107566Y84076D01*
X107569Y84011D01*
Y83975D01*
X107566Y83951D01*
X107563Y83921D01*
X107558Y83885D01*
X107553Y83844D01*
X107544Y83803D01*
X107533Y83757D01*
X107520Y83710D01*
X107503Y83661D01*
X107484Y83615D01*
X107460Y83566D01*
X107432Y83519D01*
X107402Y83476D01*
X107367Y83435D01*
X107364Y83432D01*
X107359Y83427D01*
X107345Y83416D01*
X107331Y83402D01*
X107312Y83386D01*
X107288Y83367D01*
X107260Y83347D01*
X107228Y83328D01*
X107195Y83309D01*
X107157Y83290D01*
X107116Y83271D01*
X107072Y83255D01*
X107023Y83241D01*
X106974Y83230D01*
X106922Y83225D01*
X106867Y83222D01*
X106865D01*
X106862D01*
X106854D01*
X106843D01*
X106813Y83225D01*
X106774Y83230D01*
X106728Y83238D01*
X106679Y83249D01*
X106624Y83263D01*
X106570Y83285D01*
X106567D01*
X106564Y83287D01*
X106556Y83290D01*
X106545Y83296D01*
X106515Y83312D01*
X106477Y83334D01*
X106430Y83364D01*
X106379Y83399D01*
X106324Y83440D01*
X106264Y83492D01*
X106261Y83495D01*
X106256Y83498D01*
X106248Y83508D01*
X106234Y83519D01*
X106218Y83536D01*
X106198Y83555D01*
X106174Y83577D01*
X106149Y83604D01*
X106119Y83637D01*
X106087Y83672D01*
X106048Y83710D01*
X106010Y83754D01*
X105966Y83801D01*
X105923Y83852D01*
X105874Y83910D01*
X105822Y83970D01*
X105819Y83973D01*
X105811Y83981D01*
X105800Y83997D01*
X105783Y84014D01*
X105764Y84038D01*
X105743Y84063D01*
X105693Y84120D01*
X105641Y84180D01*
X105587Y84237D01*
X105562Y84265D01*
X105541Y84289D01*
X105519Y84311D01*
X105502Y84328D01*
X105499Y84330D01*
X105489Y84341D01*
X105472Y84355D01*
X105450Y84374D01*
X105426Y84396D01*
X105398Y84418D01*
X105339Y84461D01*
Y83219D01*
X105041D01*
Y84887D01*
X105046D01*
X105060D01*
X105082D01*
X105109Y84884D01*
D02*
G37*
D12*
X231055Y91693D02*
X262945D01*
X231055Y53307D02*
Y91693D01*
Y53307D02*
X262945D01*
Y91693D01*
X156394Y14106D02*
Y65894D01*
X127606D02*
X156394D01*
X127606Y14106D02*
Y65894D01*
Y14106D02*
X156394D01*
X89055Y109693D02*
X120945D01*
X89055Y71307D02*
Y109693D01*
Y71307D02*
X120945D01*
Y109693D01*
M02*
